<?xml version="1.0" encoding="iso-8859-1"?>
<!-- Uploaded to: SVG Repo, www.svgrepo.com, Generator: SVG Repo Mixer Tools -->
<svg fill="#000000" height="800px" width="800px" version="1.1" id="Layer_1" xmlns="http://www.w3.org/2000/svg" xmlns:xlink="http://www.w3.org/1999/xlink" 
	 viewBox="0 0 512 512" xml:space="preserve">
<g>
	<g>
		<path d="M276.422,252.582H137.047c-5.633,0-10.199,4.567-10.199,10.199v139.376c0,5.632,4.566,10.199,10.199,10.199h139.376
			c5.632,0,10.199-4.567,10.199-10.199V262.781C286.621,257.149,282.055,252.582,276.422,252.582z M266.223,272.982v39.079
			l-39.079-39.079H266.223z M147.246,391.958v-39.355l39.355,39.355H147.246z M266.224,391.958h-50.775v0.001l-68.203-68.204
			v-36.351l63.806,63.806c1.992,1.991,4.602,2.987,7.212,2.987s5.221-0.996,7.212-2.987c3.983-3.983,3.984-10.441,0-14.425
			l-63.805-63.806h36.624l67.929,67.929V391.958z"/>
	</g>
</g>
<g>
	<g>
		<path d="M251.779,363.09l-2.846-2.845c-3.983-3.984-10.441-3.983-14.424,0.001c-3.983,3.983-3.982,10.441,0.001,14.424
			l2.846,2.845c1.992,1.992,4.601,2.987,7.211,2.987s5.221-0.996,7.213-2.988C255.762,373.531,255.761,367.072,251.779,363.09z"/>
	</g>
</g>
<g>
	<g>
		<path d="M442.788,169.331h-91.292c-5.632,0-10.199,4.567-10.199,10.199v223.605c0,5.632,4.567,10.199,10.199,10.199h91.292
			c5.632,0,10.199-4.567,10.199-10.199V179.53C452.987,173.898,448.42,169.331,442.788,169.331z M361.694,189.73h28.92
			l41.974,41.974v33.326l-70.582-70.582c-0.1-0.1-0.208-0.187-0.312-0.281V189.73z M361.695,392.938v-40.334l40.333,40.334H361.695z
			 M432.589,392.938h-1.712l-69.181-69.182v-36.351l70.894,70.894V392.938z M432.589,329.45l-70.582-70.582
			c-0.1-0.1-0.208-0.187-0.312-0.281v-35.601l70.894,70.894V329.45z M432.589,202.856l-13.125-13.125h13.125V202.856z"/>
	</g>
</g>
<g>
	<g>
		<path d="M276.422,39.049H137.047c-5.633,0-10.199,4.567-10.199,10.199v139.376c0,5.632,4.566,10.199,10.199,10.199h139.376
			c5.632,0,10.199-4.567,10.199-10.199V49.248C286.621,43.616,282.055,39.049,276.422,39.049z M266.223,59.448v39.08l-39.08-39.08
			H266.223z M147.246,178.426v-39.355l39.355,39.355H147.246z M215.448,178.425l-68.202-68.202V73.872l104.553,104.553H215.448z
			 M266.224,164.001L161.67,59.447h36.624l67.93,67.93V164.001z"/>
	</g>
</g>
<g>
	<g>
		<path d="M501.801,429.232h-11.93V143.506c0-5.632-4.567-10.199-10.199-10.199H324.07V11.975c0-5.632-4.567-10.199-10.199-10.199
			H99.773c-5.633,0-10.199,4.567-10.199,10.199v417.258h-9.635V134.88c0-24.218-19.703-43.921-43.921-43.921H14.941
			c-5.633,0-10.199,4.567-10.199,10.199s4.566,10.199,10.199,10.199h21.077c12.97,0,23.522,10.553,23.522,23.522v282.865
			c-3.971-1.091-8.145-1.686-12.457-1.686C21.12,416.06,0,437.182,0,463.143c0,25.961,21.12,47.082,47.083,47.082
			c25.961,0,47.083-21.121,47.083-47.082c0-4.696-0.7-9.229-1.986-13.512h323.306c-3.523,5.978-5.553,12.936-5.553,20.362
			c0,22.184,18.049,40.232,40.233,40.232c22.184,0,40.233-18.047,40.233-40.232c0-7.426-2.031-14.384-5.553-20.362h16.957
			c5.632,0,10.199-4.567,10.199-10.199C512,433.8,507.433,429.232,501.801,429.232z M47.083,489.826
			c-14.713,0-26.684-11.971-26.684-26.683c0-14.714,11.971-26.684,26.684-26.684s26.684,11.97,26.684,26.684
			C73.767,477.855,61.796,489.826,47.083,489.826z M303.672,429.232h-193.7v-193.33h193.7V429.232z M303.672,143.506v71.998h-193.7
			V22.174h193.7V143.506z M324.07,429.232V153.705h145.402v275.527H324.07z M450.164,489.826c-10.938,0-19.834-8.898-19.834-19.833
			c0-10.938,8.898-19.834,19.834-19.834s19.834,8.898,19.834,19.834C469.999,480.928,461.102,489.826,450.164,489.826z"/>
	</g>
</g>
</svg>